<svg width="112" height="48" viewBox="0 0 112 48" fill="none" xmlns="http://www.w3.org/2000/svg">
<g clip-path="url(#clip0_37_1376)">
<path d="M22.1152 15.8871L-4.18753e-05 22.4184L1.71696 15.2924L9.78796 12.9168L3.68461 7.12606L5.40161 0L22.1152 15.8871Z" fill="#0DB75F"/>
<path d="M50.9791 22.8418L28.8542 29.3708L30.5712 22.2448L38.6422 19.8692L32.5389 14.0785L34.2559 6.95239L50.9791 22.8418Z" fill="#0DB75F"/>
<path d="M79.8334 29.794L57.7182 36.3254L59.4352 29.1993L67.5062 26.8238L61.4029 21.033L63.1199 13.907L79.8334 29.794Z" fill="#0DB75F"/>
<path d="M108.697 36.7488L86.5725 43.2778L88.2895 36.1517L96.3605 33.7762L90.2571 27.9854L91.9741 20.8594L108.697 36.7488Z" fill="#0DB75F"/>
</g>
<defs>
<clipPath id="clip0_37_1376">
<rect width="109.03" height="23.06" fill="white" transform="translate(5.40161) rotate(13.547)"/>
</clipPath>
</defs>
</svg>
