<svg width="24" height="28" viewBox="0 0 24 28" fill="none" xmlns="http://www.w3.org/2000/svg">
<g filter="url(#filter0_d_101_88)">
<path d="M8.18108 8.83804C9.08953 10.8429 11.0345 11.7155 11.9998 11.7155C12.6346 11.7155 13.6928 11.3379 14.6015 10.5096C14.2692 10.5328 13.9141 10.5446 13.5347 10.5446C13.4456 10.5446 13.3522 10.5438 13.2524 10.5422C13.0611 10.6895 12.8241 10.7726 12.5782 10.7726H11.7697C11.1604 10.7726 10.6647 10.2769 10.6647 9.66759C10.6647 9.05828 11.1604 8.56261 11.7697 8.56261H12.5782C12.8703 8.56261 13.1435 8.67645 13.3461 8.87281C13.4134 8.87356 13.4798 8.87389 13.5449 8.87389C14.5887 8.87389 15.2765 8.77816 15.7265 8.6627C15.6681 8.52067 15.6363 8.36527 15.6363 8.20303V5.4014C15.6363 5.10995 15.7445 4.83058 15.9315 4.61476C15.8317 3.83777 15.6505 3.24459 15.3802 2.80701C14.823 1.9053 13.7489 1.48535 11.9998 1.48535C10.5489 1.48535 9.54688 1.78655 8.93672 2.40615C8.46374 2.88647 8.18965 3.57182 8.06152 4.60689C8.25277 4.82352 8.36337 5.10575 8.36337 5.4014V8.20303C8.36343 8.43616 8.29643 8.6537 8.18108 8.83804Z" fill="white"/>
<path d="M6.19273 8.86447H7.16263C7.52776 8.86447 7.824 8.56833 7.824 8.20304V5.40141C7.824 5.15734 7.69146 4.9447 7.49482 4.83011C7.7114 2.53601 8.59668 0.946293 11.9995 0.946293C13.9536 0.946293 15.1734 1.44758 15.8383 2.52372C16.2252 3.14995 16.4114 3.95879 16.4983 4.83356C16.3048 4.94896 16.1749 5.15971 16.1749 5.40135V8.20299C16.1749 8.51793 16.3952 8.78092 16.69 8.84759C16.2625 9.12724 15.3773 9.41286 13.5445 9.41286C13.3961 9.41286 13.2413 9.41097 13.0801 9.40709C12.9858 9.22571 12.7965 9.10158 12.5779 9.10158H11.7694C11.4569 9.10158 11.2035 9.35497 11.2035 9.66754C11.2035 9.98012 11.4569 10.2335 11.7694 10.2335H12.5779C12.7668 10.2335 12.9336 10.1406 13.0364 9.9985C13.2066 10.0028 13.3733 10.0055 13.5343 10.0055C15.6003 10.0055 16.9136 9.65283 17.4455 8.95319C17.4681 8.92343 17.4887 8.89379 17.5076 8.86447H17.8063C18.1715 8.86447 18.4677 8.56833 18.4677 8.20304V5.40141C18.4677 5.03617 18.1716 4.74004 17.8063 4.74004H17.4415C17.3389 3.68314 17.1114 2.78342 16.6434 2.02621C15.801 0.662772 14.2819 0 11.9994 0C9.7168 0 8.19781 0.662772 7.35538 2.02626C6.88746 2.78347 6.66005 3.68308 6.55737 4.74009H6.19267C5.82738 4.74009 5.53125 5.03617 5.53125 5.40146V8.2031C5.53125 8.56833 5.82744 8.86447 6.19273 8.86447Z" fill="white"/>
<path d="M19.9962 17.1028C19.7763 15.7355 19.3235 13.9742 18.4156 13.3484C17.7965 12.9215 15.635 11.7667 14.7121 11.2736L14.6926 11.2632C14.587 11.2068 14.4581 11.2181 14.364 11.292C13.8798 11.6721 13.3497 11.9281 12.7885 12.053C12.6893 12.075 12.6079 12.1456 12.5718 12.2406L12 13.7477L11.4282 12.2406C11.3921 12.1455 11.3107 12.075 11.2115 12.053C10.6503 11.9281 10.1201 11.6721 9.63588 11.292C9.54177 11.218 9.41284 11.2067 9.30725 11.2632C8.39459 11.7508 6.20517 12.9299 5.58703 13.3466C4.54139 14.0511 4.08474 16.5992 4.00383 17.1029C3.9958 17.1529 4.00044 17.204 4.01731 17.2516C4.05472 17.3573 5.01384 19.838 11.9999 19.838C18.9859 19.838 19.9452 17.3573 19.9826 17.2517C19.9996 17.2039 20.0042 17.1528 19.9962 17.1028ZM16.7433 15.5327H13.9763V14.95H16.7433V15.5327Z" fill="white"/>
</g>
<defs>
<filter id="filter0_d_101_88" x="0" y="0" width="24" height="27.838" filterUnits="userSpaceOnUse" color-interpolation-filters="sRGB">
<feFlood flood-opacity="0" result="BackgroundImageFix"/>
<feColorMatrix in="SourceAlpha" type="matrix" values="0 0 0 0 0 0 0 0 0 0 0 0 0 0 0 0 0 0 127 0" result="hardAlpha"/>
<feOffset dy="4"/>
<feGaussianBlur stdDeviation="2"/>
<feComposite in2="hardAlpha" operator="out"/>
<feColorMatrix type="matrix" values="0 0 0 0 0 0 0 0 0 0 0 0 0 0 0 0 0 0 0.25 0"/>
<feBlend mode="normal" in2="BackgroundImageFix" result="effect1_dropShadow_101_88"/>
<feBlend mode="normal" in="SourceGraphic" in2="effect1_dropShadow_101_88" result="shape"/>
</filter>
</defs>
</svg>
