<svg width="12" height="19" viewBox="0 0 12 19" fill="none" xmlns="http://www.w3.org/2000/svg">
<path fill-rule="evenodd" clip-rule="evenodd" d="M5.99841 0C4.2301 0 2.79004 1.43567 2.79004 3.20667V10.6327C2.79004 12.4039 4.22644 13.8394 5.99841 13.8394C7.76672 13.8394 9.20667 12.4037 9.20667 10.6327V3.20667C9.20667 1.43542 7.77026 0 5.99841 0ZM4.16504 3.20239V10.637C4.16504 11.6382 4.98584 12.4638 5.99841 12.4638C7.01794 12.4638 7.83167 11.6459 7.83167 10.637V3.20239C7.83167 2.20111 7.01086 1.37561 5.99841 1.37561C4.97876 1.37561 4.16504 2.19348 4.16504 3.20239Z" fill="white"/>
<path d="M6.75 17.6244V15.7069C10.25 15.5068 11.75 12.6359 11.75 9.83057V8.53711C11.7506 8.52698 11.7505 8.51685 11.7502 8.50665L11.75 8.49121C11.75 8.11133 11.4397 7.80341 11.0601 7.80341C10.6803 7.80341 10.38 8.11133 10.38 8.49121V9.82983C10.38 12.6356 9.25 14.5564 6.05005 14.5564C3.25 14.5564 1.625 12.6356 1.625 9.82983V8.53711C1.625 8.15723 1.31714 7.8493 0.9375 7.8493C0.557861 7.8493 0.25 8.15723 0.25 8.53711V9.83057C0.25 12.6391 2.25 15.5068 5.34998 15.7069V17.6244H2.77319C2.39844 17.6244 2.08337 17.9324 2.08337 18.3122C2.08337 18.6947 2.39221 19 2.77319 19H9.25C9.62476 19 9.94995 18.6921 9.94995 18.3122C9.94995 17.9297 9.63098 17.6244 9.25 17.6244H6.75Z" fill="white"/>
</svg>
