<svg width="7" height="13" viewBox="0 0 7 13" fill="none" xmlns="http://www.w3.org/2000/svg">
<path d="M0.498753 12.4916L0.499348 12.4922L0.146532 12.8442L0.499453 12.4923L0.500094 12.493C0.499983 12.4932 0.499902 12.4933 0.499906 12.4933C0.49991 12.4933 0.49998 12.4932 0.500152 12.493L0.851777 12.8456M0.498753 12.4916L0.498755 12.4915L6.14214 6.86337L6.49472 6.51174L6.1431 6.15917L0.521015 0.521854L0.162324 0.867349M0.498753 12.4916C0.498579 12.4917 0.498482 12.4918 0.498479 12.4918C0.498476 12.4918 0.498528 12.4917 0.498702 12.4916L0.498753 12.4916ZM0.851777 12.8456C0.656648 13.0401 0.340753 13.0397 0.146122 12.8446C-0.0484498 12.6495 -0.0480224 12.3336 0.147077 12.139L5.43649 6.86387L5.79052 6.51079L5.43744 6.15676L0.162324 0.867349M0.851777 12.8456L6.84852 6.86505L0.851777 12.8456ZM0.162324 0.867349C-0.0241794 0.673723 -0.0237646 0.367127 0.163262 0.173976L0.514902 0.515725L0.162324 0.867349ZM0.521782 0.521129L0.521991 0.520913L0.522384 0.520536C0.522455 0.520665 0.52254 0.520834 0.522619 0.521037C0.522794 0.521479 0.522718 0.521504 0.522719 0.521161C0.522719 0.520817 0.522795 0.520837 0.522623 0.521269C0.52255 0.521454 0.522472 0.52161 0.522405 0.521733L0.5224 0.521728M0.521782 0.521129L0.522392 0.521757C0.522293 0.521937 0.522219 0.522038 0.522223 0.522041C0.522227 0.522044 0.522294 0.521965 0.522464 0.52179C0.52269 0.521557 0.522762 0.521497 0.522708 0.521533C0.522669 0.521558 0.522563 0.521633 0.5224 0.521728M0.521782 0.521129L0.5224 0.521728M0.521782 0.521129L0.5224 0.521728M0.499526 12.4913C0.499715 12.4914 0.499876 12.4915 0.500006 12.4916L0.499401 12.4922L0.49882 12.4916C0.498957 12.4915 0.499131 12.4914 0.499337 12.4913C0.499818 12.4911 0.499835 12.4912 0.499439 12.4912C0.499043 12.4912 0.499055 12.4911 0.499526 12.4913ZM6.4969 6.51247L6.49762 6.51175L6.4969 6.51102L6.84945 6.15942L6.49685 6.51097L6.14455 6.15772L0.522477 0.520412L0.868933 0.162649L6.84948 6.1594L6.4969 6.51247ZM0.521666 0.521991C0.521469 0.521915 0.521301 0.521834 0.521168 0.521763L0.521763 0.521148L0.522376 0.521742C0.522245 0.521818 0.522078 0.521905 0.521883 0.521987C0.521407 0.52219 0.521386 0.522103 0.521775 0.522096C0.522165 0.52209 0.522147 0.522177 0.521666 0.521991Z" stroke="white"/>
</svg>
