<svg width="11" height="11" viewBox="0 0 11 11" fill="none" xmlns="http://www.w3.org/2000/svg">
<path d="M9.06926 7.82141L8.03277 6.47616C7.66259 5.99572 6.91751 6.07213 6.67571 6.60296C6.49849 6.96922 6.04562 7.12674 5.67387 6.99204C4.85081 6.66912 3.84582 5.41445 3.74895 4.49373C3.67098 4.09439 3.9813 3.70216 4.38061 3.62421C4.95557 3.52576 5.21942 2.82478 4.84925 2.34434L3.81275 0.999092C3.5111 0.657268 3.00073 0.591107 2.66441 0.850231L1.75157 1.55357C0.833211 2.29943 1.43415 4.66936 3.17398 6.92745C4.91381 9.18554 7.04666 10.4135 8.00756 9.67308L8.9204 8.96974C9.26224 8.66809 9.3284 8.15772 9.06926 7.82141Z" fill="white"/>
</svg>
